<svg width="110" height="111" viewBox="0 0 110 111" fill="none" xmlns="http://www.w3.org/2000/svg">
<path d="M73.827 28.1514L73.4437 28.8153L70.3652 27.038L70.7485 26.3741L73.827 28.1514ZM74.0806 20.9738L70.5259 27.1307L69.7098 26.6596L73.2645 20.5027L74.0806 20.9738Z" fill="black"/>
<path d="M81.6515 26.4491L76.8976 31.7352L76.1976 31.1042L80.9516 25.8181L81.6515 26.4491Z" fill="black"/>
<path d="M81.9906 35.9004L88.0948 34.0466L88.6937 34.8729L81.402 36.927L80.975 36.338L81.9906 35.9004ZM85.7162 30.7653L82.0594 35.9953L81.339 36.8401L80.912 36.251L85.1173 29.9391L85.7162 30.7653Z" fill="black"/>
<path d="M86.1664 44.3919L85.4665 44.7046L83.9401 41.2633L84.64 40.9506L86.1664 44.3919ZM90.508 38.5367L84.0173 41.4374L83.6352 40.576L90.1259 37.6753L90.508 38.5367ZM88.9646 42.5958L88.2648 42.9086L86.9403 39.9226L87.6402 39.6098L88.9646 42.5958ZM91.9374 41.7593L91.2331 42.0741L89.7265 38.6774L90.4308 38.3627L91.9374 41.7593Z" fill="black"/>
<path d="M93.5831 55.6759L87.1066 53.3306L87.1079 52.3687L94.2138 55.0697L94.213 55.6898L93.5831 55.6759ZM87.1012 57.6568L93.5836 55.2902L94.2135 55.2747L94.2128 55.8948L87.0999 58.6236L87.1012 57.6568ZM89.7331 57.5314L88.9617 57.5324L88.9667 53.5382L89.7382 53.5373L89.7331 57.5314Z" fill="black"/>
<path d="M92.9546 65.2403L92.7589 66.1572L88.0535 65.1613C87.5313 65.0507 87.1213 64.8425 86.8238 64.5367C86.5263 64.2308 86.3311 63.8667 86.2381 63.4445C86.1477 63.026 86.1504 62.5924 86.2462 62.1435C86.3468 61.6724 86.5238 61.264 86.7774 60.9184C87.0334 60.5766 87.3587 60.331 87.7534 60.1816C88.1474 60.0355 88.6056 60.0176 89.1279 60.1282L93.8332 61.1241L93.6385 62.0362L88.9332 61.0403C88.5701 60.9634 88.2565 60.9669 87.9923 61.0507C87.7281 61.1346 87.5132 61.2837 87.3476 61.4982C87.1813 61.7159 87.0642 61.9839 86.9962 62.3023C86.9276 62.6238 86.9251 62.9161 86.9888 63.1791C87.0518 63.4453 87.1869 63.6702 87.394 63.8538C87.6011 64.0374 87.8862 64.1676 88.2492 64.2444L92.9546 65.2403Z" fill="black"/>
<path d="M85.5272 71.1373L85.1456 71.9937C84.7551 71.7665 84.4401 71.4856 84.2007 71.1511C83.9613 70.8166 83.8239 70.433 83.7886 70.0005C83.7562 69.5692 83.856 69.0935 84.0879 68.5731C84.2574 68.1925 84.4832 67.8779 84.7651 67.6292C85.0456 67.3835 85.3664 67.2073 85.7275 67.1007C86.0916 66.9955 86.4852 66.9639 86.9083 67.0061C87.3331 67.0526 87.773 67.177 88.228 67.3794L88.8749 67.6672C89.33 67.8696 89.7154 68.1124 90.0312 68.3954C90.3487 68.6827 90.5894 68.9982 90.7534 69.3419C90.9161 69.6886 90.9973 70.0543 90.9969 70.4389C90.9966 70.8236 90.907 71.2166 90.7281 71.618C90.5095 72.1086 90.2325 72.4824 89.8971 72.7393C89.5616 72.9962 89.1886 73.1456 88.778 73.1874C88.369 73.2334 87.9404 73.1835 87.4923 73.0376L87.8738 72.1813C88.1957 72.2746 88.4904 72.313 88.7579 72.2966C89.0283 72.2816 89.2694 72.1964 89.4811 72.0412C89.6928 71.886 89.8735 71.6404 90.0233 71.3044C90.1518 71.016 90.21 70.7373 90.198 70.4683C90.1847 70.2023 90.11 69.95 89.974 69.7113C89.8367 69.4757 89.6433 69.2578 89.3939 69.0578C89.1445 68.8577 88.8473 68.681 88.5023 68.5275L87.8465 68.2358C87.5282 68.0942 87.2148 67.9939 86.906 67.935C86.596 67.879 86.3049 67.8724 86.0328 67.9153C85.7607 67.9581 85.5166 68.0579 85.3006 68.2148C85.0876 68.373 84.9168 68.5963 84.7883 68.8847C84.6253 69.2504 84.5535 69.5676 84.5727 69.8363C84.592 70.1049 84.6857 70.3426 84.8538 70.5492C85.0206 70.7587 85.245 70.9548 85.5272 71.1373Z" fill="black"/>
<path d="M86.4322 78.6804L80.6819 74.4998L81.227 73.7491L86.9773 77.9296L86.4322 78.6804ZM85.0896 80.5295L84.4656 80.0758L87.693 75.6308L88.3171 76.0845L85.0896 80.5295Z" fill="black"/>
<path d="M80.8725 84.7158L76.1199 79.4284L76.8197 78.7972L81.5723 84.0846L80.8725 84.7158Z" fill="black"/>
<path d="M70.4649 87.7696L70.2407 87.3803C69.9744 86.9176 69.7934 86.4695 69.6978 86.0358C69.6022 85.6022 69.5889 85.1942 69.658 84.8119C69.7272 84.4296 69.8749 84.0826 70.1012 83.771C70.3246 83.4611 70.6237 83.1976 70.9984 82.9807C71.3618 82.7703 71.7346 82.6447 72.1167 82.6039C72.4961 82.5648 72.871 82.6092 73.2413 82.737C73.6088 82.8665 73.9587 83.0796 74.291 83.3762C74.6232 83.6728 74.9225 84.0525 75.1889 84.5151L75.413 84.9044C75.6793 85.3671 75.8581 85.8147 75.9493 86.2471C76.0393 86.684 76.0483 87.0944 75.9763 87.4784C75.906 87.8652 75.7591 88.2135 75.5357 88.5235C75.3094 88.835 75.0145 89.0961 74.6511 89.3065C74.2765 89.5234 73.8994 89.6515 73.5201 89.6906C73.1379 89.7313 72.7636 89.6847 72.3973 89.5508C72.0298 89.4213 71.6827 89.2066 71.3561 88.9067C71.0283 88.6113 70.7312 88.2323 70.4649 87.7696ZM71.0478 86.9129L71.2768 87.3107C71.4879 87.6775 71.7127 87.9799 71.9512 88.218C72.1868 88.4577 72.4317 88.6318 72.6858 88.7405C72.9399 88.8491 73.1996 88.8925 73.4649 88.8705C73.7274 88.8502 73.9896 88.7642 74.2516 88.6125C74.5052 88.4657 74.7063 88.2834 74.8551 88.0655C75.0011 87.8494 75.0921 87.6029 75.1282 87.3263C75.1614 87.0512 75.1363 86.7498 75.0527 86.422C74.9692 86.0943 74.8219 85.747 74.6108 85.3802L74.3818 84.9825C74.169 84.6129 73.9412 84.3085 73.6983 84.0692C73.457 83.8328 73.2071 83.6596 72.9486 83.5498C72.6888 83.4444 72.4291 83.401 72.1695 83.4198C71.907 83.4401 71.649 83.5237 71.3954 83.6705C71.1306 83.8238 70.9238 84.0094 70.775 84.2272C70.6262 84.445 70.5366 84.6906 70.5062 84.964C70.4746 85.2419 70.5034 85.543 70.5925 85.8676C70.6833 86.1949 70.8351 86.5434 71.0478 86.9129Z" fill="black"/>
<path d="M64.5279 93.4131L62.3409 86.6485L63.2413 86.3545L68.3305 90.461L66.6437 85.2435L67.5395 84.951L69.7266 91.7156L68.8307 92.0081L63.7231 87.8922L65.4145 93.1236L64.5279 93.4131Z" fill="black"/>
<path d="M52.0772 90.8582L52.0561 91.0573C52.0265 91.3357 51.9147 91.5564 51.7206 91.7195C51.5233 91.8823 51.2724 91.9478 50.9681 91.9162C50.6605 91.8842 50.4273 91.7683 50.2685 91.5685C50.1096 91.3687 50.045 91.1296 50.0746 90.8512L50.0957 90.6522C50.1249 90.377 50.2382 90.1581 50.4355 89.9953C50.6293 89.8355 50.88 89.7715 51.1875 89.8035C51.4919 89.8352 51.7236 89.9493 51.8828 90.1458C52.0416 90.3456 52.1064 90.5831 52.0772 90.8582Z" fill="black"/>
<path d="M36.3102 82.447L36.6935 81.7831L39.7719 83.5604L39.3886 84.2243L36.3102 82.447ZM36.0566 89.6245L39.6113 83.4676L40.4274 83.9388L36.8727 90.0957L36.0566 89.6245Z" fill="black"/>
<path d="M28.4856 84.1493L33.2396 78.8632L33.9395 79.4942L29.1856 84.7803L28.4856 84.1493Z" fill="black"/>
<path d="M28.1465 74.6977L22.0424 76.5515L21.4434 75.7252L28.7351 73.6711L29.1621 74.2602L28.1465 74.6977ZM24.421 79.8328L28.0778 74.6028L28.7982 73.7581L29.2252 74.3471L25.0199 80.6591L24.421 79.8328Z" fill="black"/>
<path d="M23.9707 66.2063L24.6706 65.8935L26.197 69.3348L25.4971 69.6476L23.9707 66.2063ZM19.6291 72.0614L26.1198 69.1607L26.5019 70.0222L20.0112 72.9229L19.6291 72.0614ZM21.1725 68.0023L21.8724 67.6895L23.1969 70.6756L22.497 70.9884L21.1725 68.0023ZM18.1997 68.8388L18.904 68.524L20.4107 71.9207L19.7063 72.2355L18.1997 68.8388Z" fill="black"/>
<path d="M16.5541 54.9222L23.0306 57.2675L23.0293 58.2294L15.9234 55.5285L15.9242 54.9084L16.5541 54.9222ZM23.036 52.9413L16.5536 55.308L15.9237 55.3234L15.9244 54.7033L23.0373 51.9746L23.036 52.9413ZM20.404 53.0668L21.1755 53.0658L21.1705 57.0599L20.399 57.0609L20.404 53.0668Z" fill="black"/>
<path d="M17.1826 45.3578L17.3783 44.441L22.0836 45.4369C22.6059 45.5474 23.0158 45.7556 23.3133 46.0615C23.6109 46.3673 23.8061 46.7314 23.899 47.1537C23.9895 47.5721 23.9868 48.0058 23.8909 48.4546C23.7904 48.9258 23.6133 49.3342 23.3598 49.6798C23.1038 50.0216 22.7784 50.2671 22.3837 50.4165C21.9897 50.5627 21.5316 50.5805 21.0093 50.47L16.304 49.4741L16.4986 48.562L21.204 49.5579C21.567 49.6347 21.8807 49.6312 22.1449 49.5474C22.4091 49.4636 22.624 49.3144 22.7896 49.0999C22.9559 48.8823 23.073 48.6142 23.141 48.2959C23.2096 47.9744 23.2121 47.6821 23.1484 47.419C23.0854 47.1528 22.9503 46.9279 22.7432 46.7444C22.5361 46.5608 22.251 46.4306 21.8879 46.3537L17.1826 45.3578Z" fill="black"/>
<path d="M24.61 39.4608L24.9915 38.6045C25.3821 38.8317 25.6971 39.1125 25.9365 39.447C26.1759 39.7816 26.3132 40.1651 26.3486 40.5977C26.3809 41.0289 26.2812 41.5047 26.0493 42.025C25.8797 42.4056 25.654 42.7203 25.3721 42.969C25.0916 43.2147 24.7707 43.3908 24.4096 43.4974C24.0456 43.6027 23.652 43.6342 23.2288 43.592C22.8041 43.5456 22.3642 43.4211 21.9091 43.2187L21.2622 42.9309C20.8072 42.7285 20.4218 42.4858 20.106 42.2028C19.7885 41.9155 19.5478 41.6 19.3838 41.2562C19.2211 40.9095 19.1399 40.5439 19.1402 40.1592C19.1406 39.7746 19.2302 39.3816 19.409 38.9802C19.6276 38.4896 19.9047 38.1158 20.2401 37.8589C20.5755 37.6019 20.9486 37.4526 21.3592 37.4108C21.7682 37.3647 22.1968 37.4146 22.6449 37.5606L22.2633 38.4169C21.9414 38.3236 21.6467 38.2851 21.3793 38.3015C21.1088 38.3166 20.8678 38.4017 20.656 38.5569C20.4443 38.7121 20.2636 38.9577 20.1139 39.2937C19.9854 39.5822 19.9271 39.8609 19.9391 40.1298C19.9525 40.3959 20.0271 40.6482 20.1631 40.8868C20.3004 41.1225 20.4938 41.3403 20.7432 41.5404C20.9927 41.7404 21.2899 41.9171 21.6349 42.0706L22.2907 42.3624C22.6089 42.5039 22.9224 42.6042 23.2311 42.6632C23.5412 42.7192 23.8323 42.7257 24.1044 42.6829C24.3765 42.6401 24.6205 42.5402 24.8366 42.3833C25.0496 42.2252 25.2204 42.0019 25.3489 41.7134C25.5119 41.3477 25.5837 41.0305 25.5644 40.7619C25.5451 40.4932 25.4515 40.2556 25.2834 40.049C25.1166 39.8394 24.8921 39.6434 24.61 39.4608Z" fill="black"/>
<path d="M23.7049 31.9178L29.4553 36.0983L28.9102 36.849L23.1599 32.6685L23.7049 31.9178ZM25.0476 30.0686L25.6716 30.5223L22.4441 34.9673L21.8201 34.5137L25.0476 30.0686Z" fill="black"/>
<path d="M29.2647 25.8824L34.0172 31.1698L33.3174 31.8009L28.5649 26.5135L29.2647 25.8824Z" fill="black"/>
<path d="M39.6723 22.8285L39.8964 23.2179C40.1628 23.6805 40.3437 24.1287 40.4394 24.5623C40.535 24.9959 40.5482 25.4039 40.4791 25.7862C40.41 26.1686 40.2623 26.5155 40.036 26.8271C39.8125 27.1371 39.5135 27.4005 39.1388 27.6175C38.7754 27.8279 38.4026 27.9535 38.0204 27.9942C37.641 28.0333 37.2662 27.989 36.8959 27.8611C36.5283 27.7316 36.1785 27.5186 35.8462 27.2219C35.5139 26.9253 35.2147 26.5457 34.9483 26.083L34.7242 25.6937C34.4579 25.231 34.2791 24.7835 34.1879 24.351C34.0979 23.9142 34.0889 23.5037 34.1608 23.1198C34.2312 22.733 34.378 22.3846 34.6015 22.0747C34.8278 21.7631 35.1226 21.5021 35.486 21.2917C35.8607 21.0747 36.2377 20.9467 36.6171 20.9076C36.9993 20.8668 37.3735 20.9134 37.7399 21.0474C38.1074 21.1769 38.4545 21.3915 38.7811 21.6914C39.1089 21.9868 39.406 22.3659 39.6723 22.8285ZM39.0893 23.6852L38.8604 23.2874C38.6492 22.9207 38.4244 22.6183 38.186 22.3802C37.9503 22.1405 37.7055 21.9663 37.4514 21.8576C37.1973 21.749 36.9376 21.7057 36.6723 21.7276C36.4098 21.748 36.1475 21.834 35.8855 21.9857C35.632 22.1325 35.4308 22.3148 35.282 22.5326C35.1361 22.7488 35.045 22.9952 35.009 23.2719C34.9758 23.5469 35.0009 23.8483 35.0844 24.1761C35.168 24.5039 35.3153 24.8512 35.5264 25.2179L35.7554 25.6157C35.9681 25.9853 36.196 26.2897 36.4389 26.5289C36.6801 26.7654 36.9301 26.9385 37.1886 27.0484C37.4483 27.1538 37.708 27.1971 37.9677 27.1784C38.2302 27.1581 38.4882 27.0745 38.7417 26.9277C39.0065 26.7743 39.2133 26.5888 39.3621 26.371C39.5109 26.1531 39.6005 25.9075 39.631 25.6341C39.6626 25.3563 39.6338 25.0551 39.5446 24.7306C39.4539 24.4032 39.3021 24.0548 39.0893 23.6852Z" fill="black"/>
<path d="M45.6092 17.185L47.7963 23.9496L46.8958 24.2437L41.8067 20.1371L43.4935 25.3546L42.5977 25.6471L40.4106 18.8825L41.3064 18.59L46.4141 22.7059L44.7227 17.4745L45.6092 17.185Z" fill="black"/>
<path d="M58.06 19.7399L58.0811 19.5408C58.1107 19.2624 58.2225 19.0417 58.4166 18.8786C58.6139 18.7159 58.8647 18.6503 59.1691 18.682C59.4767 18.714 59.7099 18.8299 59.8687 19.0296C60.0275 19.2294 60.0922 19.4685 60.0626 19.7469L60.0415 19.946C60.0122 20.2211 59.899 20.4401 59.7016 20.6028C59.5079 20.7627 59.2572 20.8266 58.9496 20.7946C58.6453 20.763 58.4135 20.6489 58.2544 20.4523C58.0955 20.2525 58.0307 20.015 58.06 19.7399Z" fill="black"/>
</svg>
